<?xml version="1.0" encoding="utf-8" ?>	<!-- Generator: Assembly 2.4 - http://assemblyapp.co -->	<svg version="1.1" xmlns="http://www.w3.org/2000/svg" xmlns:xlink="http://www.w3.org/1999/xlink" width="4096.00" height="4096.00" viewBox="0 0 4096.0 4096.0">		<g id="document" transform="scale(13.653333333333334 13.653333333333334) translate(150.0 150.0)">			<path id="id=bottom" d="M150,-1.90721e-14 C150,-82.8427 82.8427,-150 -8.8332e-15,-150 C-82.8427,-150 -150,-82.8427 -150,-1.90721e-14 C-150,82.8427 -82.8427,150 -8.8332e-15,150 C82.8427,150 150,82.8427 150,-1.90721e-14 Z " fill="#aaffc3" fill-opacity="1.00" />			<path id="middle" d="M130.326,-1.90721e-14 C130.326,-71.977 71.977,-130.326 -8.8332e-15,-130.326 C-71.977,-130.326 -130.326,-71.977 -130.326,-1.90721e-14 C-130.326,71.977 -71.977,130.326 -8.8332e-15,130.326 C71.977,130.326 130.326,71.977 130.326,-1.90721e-14 Z " fill="#fffb8b" fill-opacity="1.00" />		<g id="top">	<path id="topMain" d="M-110.662,-22.0696 C-100.401,-73.812 -54.7556,-112.82 -2.7304e-14,-112.82 C54.5798,-112.82 100.107,-74.0621 110.562,-22.5677 L110.562,-22.5677 C120.093,-19.4954 126.988,-10.553 126.988,-1.90721e-14 C126.988,10.553 120.093,19.4954 110.562,22.5677 C100.107,74.0621 54.5798,112.82 -2.7304e-14,112.82 C-54.4036,112.82 -99.8133,74.3119 -110.46,23.066 C-120.044,20.025 -126.988,11.0563 -126.988,0.465601 C-126.988,-10.0504 -120.141,-18.9672 -110.662,-22.0696 L-110.662,-22.0696 Z " fill="#800102" fill-opacity="1.00" />			<path id="topRight" d="M127.454,-1.90721e-14 C127.454,-13.3499 116.632,-24.172 103.282,-24.172 C89.9321,-24.172 79.1099,-13.3499 79.1099,-1.90721e-14 C79.1099,13.3499 89.9321,24.172 103.282,24.172 C116.632,24.172 127.454,13.3499 127.454,-1.90721e-14 Z M126.523,-1.90721e-14 C126.523,12.8356 116.118,23.2408 103.282,23.2408 C90.4464,23.2408 80.0411,12.8356 80.0411,-1.90721e-14 C80.0411,-12.8356 90.4464,-23.2408 103.282,-23.2408 C116.118,-23.2408 126.523,-12.8356 126.523,-1.90721e-14 Z " fill="#000000" fill-opacity="1.00" />			<path id="topLeft" d="M-79.1099,0.465601 C-79.1099,-12.8843 -89.9321,-23.7064 -103.282,-23.7064 C-116.632,-23.7064 -127.454,-12.8843 -127.454,0.465601 C-127.454,13.8155 -116.632,24.6376 -103.282,24.6376 C-89.9321,24.6376 -79.1099,13.8155 -79.1099,0.465601 Z M-80.0411,0.465601 C-80.0411,13.3012 -90.4464,23.7064 -103.282,23.7064 C-116.118,23.7064 -126.523,13.3012 -126.523,0.465601 C-126.523,-12.37 -116.118,-22.7752 -103.282,-22.7752 C-90.4464,-22.7752 -80.0411,-12.37 -80.0411,0.465601 Z " fill="#000000" fill-opacity="1.00" />	</g><path id="head" d="M56.2684,-56.2684 L-8.8332e-15,-112.82 C-8.8332e-15,-112.82 -46.585,-65.9519 -56.2684,-56.2684 C-70.6687,-41.8681 -79.5755,-21.9742 -79.5755,3.16835e-07 C-79.5755,43.9484 -43.9484,79.5755 -8.8332e-15,79.5755 C43.9484,79.5755 79.5755,43.9484 79.5755,3.16835e-07 C79.5755,-21.9742 70.6687,-41.8681 56.2684,-56.2684 Z " fill="#da4620" fill-opacity="1.00" />		</g>	</svg>