<svg id="visual" viewBox="0 0 900 600" width="900" height="600" xmlns="http://www.w3.org/2000/svg" xmlns:xlink="http://www.w3.org/1999/xlink" version="1.1"><rect x="0" y="0" width="900" height="600" fill="#FF0066"></rect><g transform="translate(446.95652667188784 287.63750827452645)"><path d="M105.6 -192.3C136.4 -165 160.9 -136 173.5 -103.7C186.1 -71.3 186.8 -35.7 199.2 7.2C211.6 50 235.7 100 229.3 143C222.9 186 185.9 222.1 142.6 246.2C99.3 270.4 49.7 282.7 4.8 274.3C-40 265.9 -80 236.9 -108 203.9C-136 170.9 -152 133.9 -168.8 99.3C-185.7 64.7 -203.3 32.3 -214.3 -6.3C-225.3 -45 -229.6 -90 -214.6 -128C-199.7 -165.9 -165.6 -196.8 -126.6 -219.5C-87.7 -242.2 -43.8 -256.6 -3.3 -251C37.3 -245.3 74.7 -219.7 105.6 -192.3" fill="#BB004B"></path></g></svg>