<?xml version="1.0" encoding="UTF-8" standalone="no"?>
<!DOCTYPE svg PUBLIC "-//W3C//DTD SVG 1.1//EN" "http://www.w3.org/Graphics/SVG/1.1/DTD/svg11.dtd">
<!-- Created with Vectornator (http://vectornator.io/) -->
<svg height="100%" stroke-miterlimit="10" style="fill-rule:nonzero;clip-rule:evenodd;stroke-linecap:round;stroke-linejoin:round;" version="1.1" viewBox="0 0 4096 4096" width="100%" xml:space="preserve" xmlns="http://www.w3.org/2000/svg" xmlns:xlink="http://www.w3.org/1999/xlink">
<defs/>
<clipPath id="ArtboardFrame">
<rect height="4096" width="4096" x="0" y="0"/>
</clipPath>
<g clip-path="url(#ArtboardFrame)" id="document">
<path d="M0-1.13687e-13L4105.9-1.13687e-13L4105.9 4105.9L0 4105.9L0-1.13687e-13Z" fill="#D36A00" fill-rule="nonzero" opacity="1" stroke="#ffffff" stroke-linecap="butt" stroke-linejoin="miter" stroke-width="3.28065"/>
<path d="M313.323 1001.45C313.323 666.527 584.83 395.02 919.75 395.02C1254.67 395.02 1526.18 666.527 1526.18 1001.45C1526.18 1336.37 1254.67 1607.87 919.75 1607.87C584.83 1607.87 313.323 1336.37 313.323 1001.45Z" fill="#b80b0b" fill-rule="nonzero" opacity="1" stroke="#ffffff" stroke-linecap="butt" stroke-linejoin="miter" stroke-width="2.35898"/>
<path d="M1858.04 2315.36C1858.04 2105.16 2028.44 1934.77 2238.63 1934.77C2448.83 1934.77 2619.22 2105.16 2619.22 2315.36C2619.22 2525.55 2448.83 2695.95 2238.63 2695.95C2028.44 2695.95 1858.04 2525.55 1858.04 2315.36Z" fill="#b80b0b" fill-rule="nonzero" opacity="1" stroke="#ffffff" stroke-linecap="butt" stroke-linejoin="miter" stroke-width="1.48048"/>
<path d="M2540.05 1119.07C2540.05 799.295 2799.28 540.068 3119.05 540.068C3438.82 540.068 3698.05 799.295 3698.05 1119.07C3698.05 1438.84 3438.82 1698.07 3119.05 1698.07C2799.28 1698.07 2540.05 1438.84 2540.05 1119.07Z" fill="#b80b0b" fill-rule="nonzero" opacity="1" stroke="#ffffff" stroke-linecap="butt" stroke-linejoin="miter" stroke-width="2.25228"/>
<path d="M435.548 3098.18C435.548 2814.17 665.78 2583.94 949.785 2583.94C1233.79 2583.94 1464.02 2814.17 1464.02 3098.18C1464.02 3382.19 1233.79 3612.42 949.785 3612.42C665.78 3612.42 435.548 3382.19 435.548 3098.18Z" fill="#b80b0b" fill-rule="nonzero" opacity="1" stroke="#ffffff" stroke-linecap="butt" stroke-linejoin="miter" stroke-width="2.00036"/>
<path d="M2672.02 3275.26C2672.02 2903.15 2973.68 2601.49 3345.79 2601.49C3717.9 2601.49 4019.56 2903.15 4019.56 3275.26C4019.56 3647.37 3717.9 3949.03 3345.79 3949.03C2973.68 3949.03 2672.02 3647.37 2672.02 3275.26Z" fill="#b80b0b" fill-rule="nonzero" opacity="1" stroke="#ffffff" stroke-linecap="butt" stroke-linejoin="miter" stroke-width="2.00036"/>
</g>
</svg>
