<?xml version="1.0" encoding="UTF-8" standalone="no"?>
<!DOCTYPE svg PUBLIC "-//W3C//DTD SVG 1.1//EN" "http://www.w3.org/Graphics/SVG/1.1/DTD/svg11.dtd">
<!-- Created with Vectornator (http://vectornator.io/) -->
<svg height="100%" stroke-miterlimit="10" style="fill-rule:nonzero;clip-rule:evenodd;stroke-linecap:round;stroke-linejoin:round;" version="1.1" viewBox="0 0 1024 1024" width="100%" xml:space="preserve" xmlns="http://www.w3.org/2000/svg" xmlns:vectornator="http://vectornator.io" xmlns:xlink="http://www.w3.org/1999/xlink">
<defs/>
<g id="Layer-1" vectornator:layerName="Layer 1">
<path d="M0 0L1024 0L1024 1024L0 1024L0 0Z" fill="#ff9944" fill-rule="nonzero" opacity="1" stroke="none"/>
<path d="M900.656 60.1391C884.982 46.2403 866.011 33.2545 845.416 30.3632C824.872 27.5225 802.604 34.827 782.872 46.3417C763.089 57.8565 745.791 73.5307 738.233 92.7557C730.624 112.031 732.805 134.858 738.385 154.489C743.965 174.069 752.893 190.504 761.465 208.055C769.987 225.606 778.103 244.375 792.307 261.114C806.51 277.854 826.8 292.564 849.525 296.825C872.301 301.086 897.461 294.847 919.425 282.571C941.389 270.346 960.158 252.034 963.404 230.222C966.651 208.41 954.426 183.047 948.136 161.337C941.846 139.575 941.491 121.517 935.099 105.082C928.708 88.6976 916.28 73.9872 900.656 60.1391" fill="#994444" fill-rule="nonzero" opacity="1" stroke="none" vectornator:layerName="path"/>
<path d="M286.516 91.8746C308.483 107.107 312.411 151.2 331.091 185.914C349.851 220.627 383.362 245.961 385.446 272.578C387.53 299.194 358.188 326.933 333.576 351.465C308.964 375.997 289.162 397.322 265.111 408.947C241.06 420.571 212.68 422.495 185.983 419.689C159.287 416.883 134.274 409.187 105.653 400.208C77.1125 391.149 44.9644 380.807 29.7321 359.081C14.4999 337.355 16.0231 304.405 16.7446 271.776C17.4662 239.147 17.2256 206.999 29.9727 180.943C42.7998 154.888 68.4542 135.006 96.3533 123.221C124.252 111.356 154.316 107.588 189.35 98.9296C224.465 90.2712 264.55 76.6424 286.516 91.8746" fill="#994444" fill-rule="nonzero" opacity="1" stroke="none" vectornator:layerName="path"/>
<path d="M302.397 640.676C327.332 656.161 354.278 667.013 373.299 686.826C392.382 706.64 403.538 735.355 397.381 760.594C391.223 785.773 367.752 807.415 347.389 825.034C327.088 842.592 309.957 856.188 291.179 870.941C272.463 885.756 252.101 901.729 230.336 904.289C208.511 906.85 185.283 895.937 162.482 883.5C139.681 871.063 117.368 857.041 104.931 836.923C92.4938 816.743 89.8723 790.467 94.2008 766.63C98.5293 742.792 109.747 721.454 124.257 704.933C138.827 688.472 156.751 676.767 175.224 657.563C193.696 638.359 212.717 611.656 233.689 608.364C254.661 605.011 277.523 625.19 302.397 640.676" fill="#994444" fill-rule="nonzero" opacity="1" stroke="none" vectornator:layerName="path"/>
<path d="M815.847 356.406C845.019 371.195 852.92 425.082 865.682 468.941C878.546 512.8 896.374 546.632 909.643 588.06C923.013 629.488 931.724 678.614 911.466 709.508C891.106 740.301 841.575 752.861 799.033 778.792C756.49 804.722 720.937 843.922 679.509 854.051C637.979 864.18 590.777 845.036 550.666 817.687C510.656 790.339 477.736 754.785 464.771 713.762C451.805 672.841 458.592 626.652 464.163 583.603C469.734 540.554 473.988 500.645 488.169 461.749C502.35 422.853 526.457 384.97 560.998 373.221C595.437 361.471 640.41 375.955 688.118 370.992C735.928 366.029 786.574 341.618 815.847 356.406" fill="#994444" fill-rule="nonzero" opacity="1" stroke="none" vectornator:layerName="path"/>
</g>
</svg>
